<svg viewBox="0 0 24 24" focusable="false" class="chakra-icon css-mpq5dm" data-testid="CompassOutlinedIcon"><path fill-rule="evenodd" d="M1 12c0 3.515.975 6.256 2.825 8.123C5.692 22.007 8.45 23 12 23c3.789 0 6.677-1.132 8.542-3.272C22.154 17.878 23 15.275 23 12c0-3.09-.753-5.582-2.192-7.408C18.957 2.245 15.973 1 12 1c-3.532 0-6.282.984-8.149 2.851C1.984 5.718 1 8.468 1 12Zm2 0c0-2.986.757-5.236 2.26-6.74C6.764 3.758 9.014 3 12 3c2.613 0 4.662.58 6.14 1.732C20.043 6.213 21 8.64 21 12c0 3.241-.892 5.616-2.663 7.109C16.846 20.367 14.73 21 12 21c-2.772 0-4.91-.652-6.405-1.949C3.87 17.555 3 15.201 3 12Zm12.447-3.447a44.806 44.806 0 0 1-.487 1.912 44.989 44.989 0 0 1-1.082 3.413 48.34 48.34 0 0 1-5.326 1.569 47.238 47.238 0 0 1 .488-1.912 44.968 44.968 0 0 1 1.082-3.413 48.158 48.158 0 0 1 5.325-1.569ZM17.5 6.5c-.903.158-1.854.356-2.836.594a50.985 50.985 0 0 0-3.099.856 45.43 45.43 0 0 0-2.688.927 45.566 45.566 0 0 0-.927 2.688 51.794 51.794 0 0 0-.856 3.098A45.072 45.072 0 0 0 6.5 17.5a45.161 45.161 0 0 0 2.837-.594 51.997 51.997 0 0 0 3.098-.857 45.42 45.42 0 0 0 2.688-.926c.321-.842.633-1.743.926-2.688a50.86 50.86 0 0 0 .857-3.098A45.22 45.22 0 0 0 17.5 6.5Zm-4.792 6.272c-.169.15-.407.228-.708.228-.361 0-.633-.113-.8-.327-.131-.165-.2-.392-.2-.673 0-.322.09-.572.26-.741.17-.17.42-.259.74-.259.306 0 .547.081.716.236.186.17.284.428.284.764 0 .341-.101.602-.292.772Z" clip-rule="evenodd"></path></svg>