<svg viewBox="0 0 24 24" focusable="false" class="chakra-icon css-mpq5dm" data-testid="HeartOutlinedIcon"><path d="M22.95 7.174c-.172-1.295-.8-2.38-1.816-3.138-1.143-.875-2.493-1.205-3.919-.954-1.018.179-1.983.634-2.854 1.238A11.52 11.52 0 0 0 12 6.55a11.602 11.602 0 0 0-2.242-2.146c-.9-.646-1.908-1.135-2.973-1.322-1.426-.251-2.777.079-3.919.954-1.015.758-1.644 1.843-1.815 3.138-.355 2.677 1.21 5.754 2.797 7.738a23.24 23.24 0 0 0 2.988 3.117c1.339 1.15 2.825 2.129 4.45 2.842.22.097.477.129.714.129s.493-.032.714-.13c1.609-.705 3.08-1.67 4.409-2.806a23.202 23.202 0 0 0 3.03-3.152c1.586-1.984 3.15-5.061 2.796-7.738Zm-4.351 6.543c-.47.67-1.375 1.652-2.454 2.608-1.284 1.14-2.814 2.243-4.145 2.739-1.225-.457-2.617-1.426-3.832-2.465-1.215-1.04-2.252-2.148-2.767-2.882-1.267-1.808-2.651-4.342-2.393-6.293.105-.793.45-1.397 1.056-1.847l.013-.01c.707-.544 1.48-.735 2.36-.577.803.141 1.668.581 2.487 1.235.82.654 1.595 1.522 2.22 2.522L12 10.07l.856-1.324a10.165 10.165 0 0 1 2.152-2.467c.84-.684 1.73-1.145 2.556-1.29.879-.158 1.652.033 2.36.577l.012.01c.606.45.95 1.054 1.056 1.847.258 1.95-1.126 4.485-2.393 6.293Z"></path></svg>